#!OML:ASF F:\VICON\USERDATA\INSTALL\Justin_Nancy\Justin_Nancy.ASF
:FULLY-SPECIFIED
:DEGREES
47
root 12.2942 17.0763 -15.7633 -4.92106 -7.99972 5.66745
lowerback 7.56541 1.15666 -4.27555
upperback -0.178059 1.22583 1.45561
thorax -4.55758 0.723055 3.78345
lowerneck -15.018 -3.71005 -10.3915
upperneck 22.7354 -3.94108 5.5505
head 10.0433 -2.1002 3.17995
rclavicle 5.73991e-015 7.15625e-015
rhumerus -32.9197 -13.1365 -76.4731
rradius 38.9181
rwrist -0.435205
rhand -16.7607 12.2944
rfingers 7.12502
rthumb 9.4662 -17.473
lclavicle 5.73991e-015 7.15625e-015
lhumerus -48.2048 32.5217 66.3422
lradius 14.2323
lwrist -20.7379
lhand -20.559 21.3255
lfingers 7.12502
lthumb 5.80014 51.2261
rfemur -2.60346 0.708313 17.8733
rtibia 69.0374
rfoot 9.06311 -4.91398
rtoes 4.7491
lfemur -20.5347 5.54238 -24.0714
ltibia 34.5122
lfoot -5.65165 3.07915
ltoes -4.87523
48
root 12.2821 17.1258 -15.4628 -5.26078 -9.04276 5.83192
lowerback 6.87315 1.35811 -4.19713
upperback 0.207116 1.53483 1.49455
thorax -3.79546 0.850554 3.75748
lowerneck -15.1717 -3.6294 -10.4136
upperneck 22.7195 -3.75598 5.36295
head 10.0479 -2.03541 3.1401
rclavicle 1.67725e-014 -1.19271e-014
rhumerus -32.8766 -13.4955 -76.3752
rradius 38.2368
rwrist 0.358025
rhand -17.0074 12.5068
rfingers 7.12502
rthumb 9.2282 -17.2713
lclavicle 1.67725e-014 -1.19271e-014
lhumerus -46.4823 28.6771 70.5874
lradius 15.9383
lwrist -16.2916
lhand -19.8344 23.96
lfingers 7.12502
lthumb 6.49965 53.8403
rfemur -3.96697 1.19115 17.6572
rtibia 70.521
rfoot 7.37533 -6.52167
rtoes 2.13952
lfemur -18.8319 5.9963 -24.1468
ltibia 34.242
lfoot -6.7036 3.93254
ltoes -4.92327
49
root 12.2227 17.1446 -15.3191 -4.25446 -6.75517 5.53879
lowerback 7.2575 0.554871 -4.50746
upperback -0.41703 0.423015 1.66147
thorax -4.55837 0.338242 4.22483
lowerneck -14.9241 -3.55901 -10.3018
upperneck 22.7351 -3.66532 5.16631
head 9.99263 -2.01007 3.06533
rclavicle 3.2054e-015 1.11319e-014
rhumerus -33.2464 -13.9926 -76.2239
rradius 37.6507
rwrist 1.13688
rhand -16.922 12.2955
rfingers 7.12502
rthumb 9.31065 -17.4789
lclavicle 3.2054e-015 1.11319e-014
lhumerus -45.6381 27.488 71.5962
lradius 15.8594
lwrist -16.0269
lhand -19.7716 24.179
lfingers 7.12502
lthumb 6.56032 54.0574
rfemur -6.89792 -1.3736 18.1364
rtibia 72.0744
rfoot 6.74027 -8.0551
rtoes -1.7308
lfemur -19.4001 4.57256 -24.0358
ltibia 34.0917
lfoot -6.69677 3.53231
ltoes -5.37061
50
root 12.1872 17.1706 -15.0902 -4.29517 -6.39622 5.45032
lowerback 7.35774 0.35192 -4.43894
upperback -0.506478 0.15222 1.6433
thorax -4.679 0.207078 4.19806
lowerneck -14.8742 -3.48946 -10.0762
upperneck 23.0953 -3.61479 5.05549
head 10.1003 -1.98693 3.00047
rclavicle 1.60022e-014 -7.95139e-016
rhumerus -33.8346 -14.4326 -76.1566
rradius 37.1864
rwrist 1.78994
rhand -16.8164 12.6073
rfingers 7.12502
rthumb 9.41248 -17.1625
lclavicle 1.60022e-014 -7.95139e-016
lhumerus -45.0667 27.5581 71.2896
lradius 15.2467
lwrist -17.666
lhand -19.8839 24.1682
lfingers 7.12502
lthumb 6.45188 54.0499
rfemur -8.5012 -2.07815 18.3437
rtibia 73.1811
rfoot 5.90598 -8.54016
rtoes -3.35865
lfemur -18.3829 4.56072 -23.9199
ltibia 33.9761
lfoot -7.35461 3.64246
ltoes -5.60027
51
root 12.1536 17.1938 -14.864 -4.23788 -5.85716 5.54858
lowerback 7.21832 0.117353 -4.58727
upperback -0.432157 -0.167399 1.63002
thorax -4.4884 0.0453872 4.30228
lowerneck -15.0592 -3.53174 -9.89754
upperneck 23.1942 -3.65919 4.8803
head 10.1681 -2.01101 2.90158
rclavicle 5.76476e-015 -1.51076e-014
rhumerus -34.1356 -14.892 -76.0181
rradius 36.7402
rwrist 2.30554
rhand -16.7397 13.0104
rfingers 7.12502
rthumb 9.48652 -16.7561
lclavicle 5.76476e-015 -1.51076e-014
lhumerus -44.1299 27.3211 71.6831
lradius 15.2399
lwrist -19.1647
lhand -19.4773 24.6483
lfingers 7.12502
lthumb 6.84443 54.5177
rfemur -10.2201 -3.00214 18.2892
rtibia 74.1321
rfoot 5.15256 -9.07962
rtoes -1.45368
lfemur -17.5116 4.37666 -24.0415
ltibia 33.8722
lfoot -8.35365 3.5585
ltoes -6.39624
